<?xml version="1.0" encoding="UTF-8"?>
<!DOCTYPE svg PUBLIC "-//W3C//DTD SVG 1.1//EN" "http://www.w3.org/Graphics/SVG/1.1/DTD/svg11.dtd">
<svg version="1.1" xmlns="http://www.w3.org/2000/svg" xmlns:xlink="http://www.w3.org/1999/xlink" x="0" y="0" width="400" height="400" viewBox="0, 0, 400, 400">
  <g id="Layer_1">
    <path d="M223.26,307.5 L223.26,254.22 L157.02,254.22 L157.02,307.5 z M311.676,184.812 Q315.132,177.9 316.428,168.54 Q317.724,159.18 317.724,145.644 Q317.724,129.228 314.124,117.852 Q310.524,106.476 301.308,98.844 Q292.092,91.212 275.244,87.324 Q258.396,83.436 232.476,83.436 Q194.172,83.436 81.564,83.436 L81.564,127.5 Q224.412,127.5 229.308,127.5 Q240.252,127.5 245.868,128.22 Q251.484,128.94 254.652,130.812 Q257.82,132.684 259.116,136.572 Q260.412,140.46 260.412,147.66 Q260.412,160.332 252.06,164.796 Q243.708,169.26 221.244,172.716 Q217.5,173.292 211.452,174.444 Q189.852,177.9 179.916,182.076 Q169.98,186.252 165.084,197.772 Q163.068,202.668 162.492,209.868 Q161.916,217.068 161.916,230.028 L219.228,230.028 Q218.652,228.876 218.652,227.436 Q218.652,223.404 223.836,219.66 Q229.02,215.916 243.42,215.052 L243.708,215.052 Q254.364,214.188 263.436,213.036 Q272.508,211.884 282.876,208.86 Q293.244,205.836 301.308,199.788 Q309.372,193.74 311.676,184.812 z" fill="#808080"/>
  </g>
</svg>
