<?xml version="1.0" encoding="UTF-8"?>
<!DOCTYPE svg PUBLIC "-//W3C//DTD SVG 1.1//EN" "http://www.w3.org/Graphics/SVG/1.1/DTD/svg11.dtd">
<svg version="1.1" xmlns="http://www.w3.org/2000/svg" xmlns:xlink="http://www.w3.org/1999/xlink" x="0" y="0" width="297.36" height="113.184" viewBox="0, 0, 297.36, 113.184">
  <g id="Layer_1" transform="translate(-51.32, -130.316)">
    <g>
      <path d="M86.6,217.148 L86.6,198.428 L169.976,198.428 L169.976,175.532 L86.6,175.532 L86.6,156.524 L175.448,156.524 L175.448,130.316 L88.616,130.316 L52.76,130.316 L51.32,130.316 L51.32,243.5 L53.768,243.5 L88.616,243.5 L175.448,243.5 L175.448,217.148 z" fill="#808080"/>
      <path d="M222.536,157.532 L222.968,158.54 L291.512,243.068 L348.68,243.068 L348.68,130.316 L315.416,130.316 L315.416,215.708 L314.84,214.268 L246.872,130.316 L189.272,130.316 L189.272,243.068 L222.536,243.068 z" fill="#808080"/>
    </g>
  </g>
</svg>
