<?xml version="1.0" encoding="UTF-8"?>
<!DOCTYPE svg PUBLIC "-//W3C//DTD SVG 1.1//EN" "http://www.w3.org/Graphics/SVG/1.1/DTD/svg11.dtd">
<svg version="1.1" xmlns="http://www.w3.org/2000/svg" xmlns:xlink="http://www.w3.org/1999/xlink" x="0" y="0" width="354.449" height="348.885" viewBox="0, 0, 354.449, 348.885">
  <g id="Layer_1">
    <path d="M177.225,0 C79.359,0 0,80.076 0,178.858 C0,257.883 50.78,324.927 121.197,348.577 C130.055,350.233 133.306,344.697 133.306,339.973 C133.306,335.708 133.142,321.618 133.066,306.673 C83.761,317.493 73.358,285.57 73.358,285.57 C65.296,264.896 53.68,259.399 53.68,259.399 C37.6,248.298 54.892,248.526 54.892,248.526 C72.688,249.788 82.059,266.958 82.059,266.958 C97.866,294.301 123.519,286.396 133.632,281.826 C135.223,270.266 139.816,262.376 144.884,257.909 C105.52,253.387 64.139,238.05 64.139,169.517 C64.139,149.989 71.063,134.034 82.4,121.509 C80.56,117.004 74.493,98.812 84.116,74.176 C84.116,74.176 98.999,69.369 132.866,92.509 C147.003,88.546 162.164,86.559 177.225,86.491 C192.287,86.559 207.46,88.546 221.623,92.509 C255.449,69.369 270.311,74.176 270.311,74.176 C279.958,98.812 273.888,117.004 272.048,121.509 C283.412,134.034 290.288,149.989 290.288,169.517 C290.288,238.213 248.828,253.339 209.364,257.767 C215.721,263.318 221.385,274.202 221.385,290.889 C221.385,314.821 221.18,334.082 221.18,339.973 C221.18,344.732 224.37,350.31 233.353,348.553 C303.732,324.876 354.448,257.856 354.448,178.858 C354.448,80.076 275.101,0 177.225,0" fill="#24292F" id="path2"/>
  </g>
</svg>
