<?xml version="1.0" encoding="UTF-8" standalone="no"?>
<svg
   xmlns:dc="http://purl.org/dc/elements/1.1/"
   xmlns:cc="http://creativecommons.org/ns#"
   xmlns:rdf="http://www.w3.org/1999/02/22-rdf-syntax-ns#"
   xmlns:svg="http://www.w3.org/2000/svg"
   xmlns="http://www.w3.org/2000/svg"
   xmlns:sodipodi="http://sodipodi.sourceforge.net/DTD/sodipodi-0.dtd"
   xmlns:inkscape="http://www.inkscape.org/namespaces/inkscape"
   version="1.1"
   x="0"
   y="0"
   width="354.449"
   height="348.885"
   viewBox="0, 0, 354.449, 348.885"
   id="svg5"
   sodipodi:docname="github-red.svg"
   inkscape:version="0.92.2 (5c3e80d, 2017-08-06)">
  <metadata
     id="metadata11">
    <rdf:RDF>
      <cc:Work
         rdf:about="">
        <dc:format>image/svg+xml</dc:format>
        <dc:type
           rdf:resource="http://purl.org/dc/dcmitype/StillImage" />
        <dc:title></dc:title>
      </cc:Work>
    </rdf:RDF>
  </metadata>
  <defs
     id="defs9" />
  <sodipodi:namedview
     pagecolor="#ffffff"
     bordercolor="#666666"
     borderopacity="1"
     objecttolerance="10"
     gridtolerance="10"
     guidetolerance="10"
     inkscape:pageopacity="0"
     inkscape:pageshadow="2"
     inkscape:window-width="1094"
     inkscape:window-height="788"
     id="namedview7"
     showgrid="false"
     inkscape:zoom="0.67644064"
     inkscape:cx="177.2245"
     inkscape:cy="174.4425"
     inkscape:window-x="97"
     inkscape:window-y="121"
     inkscape:window-maximized="0"
     inkscape:current-layer="svg5" />
  <g
     id="Layer_1"
     transform="translate(-22.776, -25.558)"
     style="fill:#ff0000">
    <path
       d="M200.001,25.558 C102.135,25.558 22.776,105.634 22.776,204.416 C22.776,283.441 73.556,350.485 143.973,374.135 C152.831,375.791 156.082,370.255 156.082,365.531 C156.082,361.266 155.918,347.176 155.842,332.231 C106.537,343.051 96.134,311.128 96.134,311.128 C88.072,290.454 76.456,284.957 76.456,284.957 C60.376,273.856 77.668,274.084 77.668,274.084 C95.464,275.346 104.835,292.516 104.835,292.516 C120.642,319.859 146.295,311.954 156.408,307.384 C157.999,295.824 162.592,287.934 167.66,283.467 C128.296,278.945 86.915,263.608 86.915,195.075 C86.915,175.547 93.839,159.592 105.176,147.067 C103.336,142.562 97.269,124.37 106.892,99.734 C106.892,99.734 121.775,94.927 155.642,118.067 C169.779,114.104 184.94,112.117 200.001,112.049 C215.063,112.117 230.236,114.104 244.399,118.067 C278.225,94.927 293.087,99.734 293.087,99.734 C302.734,124.37 296.664,142.562 294.824,147.067 C306.188,159.592 313.064,175.547 313.064,195.075 C313.064,263.771 271.604,278.897 232.14,283.325 C238.497,288.876 244.161,299.76 244.161,316.447 C244.161,340.379 243.956,359.64 243.956,365.531 C243.956,370.29 247.146,375.868 256.129,374.111 C326.508,350.434 377.224,283.414 377.224,204.416 C377.224,105.634 297.877,25.558 200.001,25.558"
       fill="#808080"
       id="path2"
       style="fill:#ff0000" />
  </g>
</svg>
