<?xml version="1.0" encoding="UTF-8"?>
<!DOCTYPE svg PUBLIC "-//W3C//DTD SVG 1.1//EN" "http://www.w3.org/Graphics/SVG/1.1/DTD/svg11.dtd">
<svg version="1.1" xmlns="http://www.w3.org/2000/svg" xmlns:xlink="http://www.w3.org/1999/xlink" x="0" y="0" width="256.8" height="122.4" viewBox="0, 0, 214, 102">
  <g id="Layer_3" display="none">
    <path d="M152.565,88.647 C121.259,88.647 95.881,71.792 95.881,51 C95.881,30.208 121.259,13.353 152.565,13.353 C183.871,13.353 209.25,30.208 209.25,51 C209.25,71.792 183.871,88.647 152.565,88.647 z" fill="#FFFFFF"/>
  </g>
  <g id="Layer_3_Copy">
    <path d="M152.565,88.647 C121.259,88.647 95.881,71.792 95.881,51 C95.881,30.208 121.259,13.353 152.565,13.353 C183.871,13.353 209.25,30.208 209.25,51 C209.25,71.792 183.871,88.647 152.565,88.647 z" fill="#99CCFC"/>
  </g>
  <g id="Layer_2">
    <text transform="matrix(1, 0, 0, 1, 89.519, 51)">
      <tspan x="-74.004" y="9.25" font-family="Arial-BoldMT" font-size="36" fill="#010000">bazil.pro</tspan>
    </text>
    <g>
      <path d="M131.721,95.735 L130.874,95.438 Q130.676,95.351 130.632,95.205 Q130.589,95.059 130.857,94.036 Q131.054,93.304 131.376,92.033 Q131.699,90.762 131.883,89.949 Q132.067,89.135 132.296,87.837 Q132.525,86.539 132.674,85.32 Q133.019,82.513 132.814,81.828 Q132.572,81.02 131.943,81.208 Q131.471,81.349 130.744,82.087 Q130.017,82.825 129.318,83.879 Q128.618,84.932 128.253,85.959 Q127.888,86.986 128.08,87.626 Q128.11,87.727 128.181,87.761 Q128.253,87.795 128.399,87.751 Q128.668,87.67 129.18,87.174 Q129.409,86.959 129.463,87.138 Q129.517,87.318 128.887,88.32 Q128.258,89.322 127.854,89.443 Q127.506,89.548 126.703,89.134 Q125.9,88.72 125.752,88.226 Q125.695,88.035 125.827,87.212 Q125.96,86.39 126.295,85.304 Q126.631,84.219 127.106,83.355 Q127.648,82.348 128.46,81.444 Q129.272,80.54 130.086,79.93 Q130.9,79.319 131.461,79.15 Q132.269,78.908 132.907,79.384 Q133.545,79.859 133.875,80.959 Q134.312,82.419 133.995,85.523 Q133.677,88.628 132.408,93.046 Q132.475,93.148 132.558,93.263 Q132.642,93.379 132.676,93.491 Q132.682,93.514 132.667,93.586 Q132.652,93.657 132.627,93.738 Q132.603,93.819 132.598,93.845 L132.182,95.437 Q132.118,95.714 131.972,95.757 Q131.838,95.798 131.721,95.735 z" fill="#F30404"/>
      <path d="M138.337,83.194 L138.82,83.05 Q139.095,81.805 139.445,81.217 Q139.795,80.629 140.412,80.444 Q141.029,80.259 141.114,80.539 Q141.154,80.674 140.85,81.414 Q140.545,82.153 140.419,82.631 Q140.814,82.562 141.122,82.507 Q141.43,82.451 141.605,82.423 Q141.321,83.805 140.729,85.34 Q140.408,85.412 140.19,85.459 Q139.972,85.506 139.748,85.555 Q139.524,85.603 139.203,85.675 Q138.889,86.834 138.71,87.725 Q138.531,88.617 138.504,89.322 Q138.476,90.028 138.648,90.6 Q138.88,91.375 139.498,91.19 Q139.924,91.062 140.478,90.401 Q141.032,89.739 141.906,88.45 L142.131,89.202 Q140.086,93.399 138.638,93.833 Q138.133,93.984 137.706,93.684 Q137.28,93.384 137.095,92.766 Q136.971,92.351 136.973,91.726 Q136.975,91.102 137.078,89.811 Q136.961,89.993 136.86,90.164 Q136.758,90.335 136.672,90.477 Q136.586,90.619 136.487,90.777 Q136.387,90.935 136.29,91.099 L136.057,90.325 Q136.94,88.984 137.869,86.001 Q137.697,86.041 137.55,86.079 Q137.402,86.117 137.2,86.178 Q136.538,86.376 136.239,86.563 Q136.115,86.637 136.009,86.712 Q135.902,86.787 135.858,86.8 Q135.813,86.814 135.792,86.746 Q135.681,86.376 135.92,85.497 Q136.102,84.757 136.342,84.355 Q136.582,83.953 137.027,83.703 Q137.473,83.453 138.337,83.194 z" fill="#F30404"/>
      <path d="M154.613,86.11 Q154.764,86.615 155.146,86.5 Q155.64,86.352 156.373,84.31 Q156.234,84.009 156.204,83.908 Q156.022,83.302 156.243,82.281 Q156.463,81.261 156.896,80.422 Q157.33,79.582 157.655,79.485 Q158.048,79.367 158.331,80.31 Q158.563,81.084 158.457,81.936 Q158.352,82.787 157.958,83.761 Q158.09,83.832 158.245,83.902 Q158.401,83.971 158.563,84.002 Q158.725,84.033 158.882,83.986 Q159.253,83.875 159.647,83.108 L159.886,83.905 Q159.275,85.092 158.624,85.287 Q158.242,85.401 157.994,85.371 Q157.747,85.342 157.336,85.196 Q156.014,88.295 154.936,88.618 Q154.521,88.743 154.187,88.506 Q153.853,88.27 153.689,87.72 Q153.608,87.451 153.308,85.632 Q153.021,86.269 152.643,87.128 Q152.264,87.988 152.014,88.46 Q151.764,88.933 151.516,89.227 Q151.268,89.522 150.954,89.616 Q150.651,89.707 150.115,89.451 Q149.58,89.196 149.098,88.649 Q148.616,88.102 148.397,87.373 Q148.186,86.666 148.236,86.1 Q148.287,85.534 148.703,84.309 Q149.084,83.215 149.418,82.492 Q149.752,81.768 150.067,81.331 Q150.383,80.893 150.641,80.816 Q150.798,80.769 151.072,80.766 Q151.347,80.764 151.58,80.828 Q151.814,80.893 151.854,81.027 Q151.982,81.454 151.801,82.218 Q151.62,82.982 151.121,84.012 Q150.623,85.042 149.921,86.17 Q149.895,87.022 150.04,87.505 Q150.087,87.662 150.224,87.773 Q150.362,87.885 150.496,87.845 Q150.957,87.707 151.834,85.878 Q152.711,84.049 153.98,80.488 Q154.025,80.352 154.283,80.275 Q154.564,80.191 154.831,80.245 Q155.098,80.3 155.162,80.513 Q155.199,80.637 154.966,82.003 Q154.734,83.37 154.599,84.493 Q154.465,85.616 154.613,86.11 z" fill="#F30404"/>
      <path d="M166.827,80.981 L167.052,81.733 Q166.513,82.629 166.131,82.988 Q165.749,83.347 164.894,83.554 Q163.953,85.721 162.842,86.054 Q162.213,86.242 161.572,85.981 Q160.931,85.721 160.407,85.095 Q159.883,84.469 159.617,83.582 Q159.402,82.864 159.617,81.845 Q159.832,80.827 160.362,79.842 Q160.893,78.857 161.618,78.132 Q162.342,77.407 163.083,77.185 Q163.611,77.027 163.963,77.099 Q164.315,77.171 164.402,77.463 Q164.469,77.687 164.299,78.057 Q164.752,78.019 164.971,78.179 Q165.191,78.34 165.356,78.89 Q165.517,79.429 165.51,80.324 Q165.503,81.219 165.281,82.068 L165.543,82.21 L165.712,82.16 Q165.902,82.102 166.059,81.951 Q166.216,81.8 166.33,81.65 Q166.444,81.5 166.827,80.981 z M163.629,78.722 Q162.866,79.562 162.34,80.216 Q161.814,80.869 161.493,81.472 Q161.172,82.076 161.157,82.595 Q161.253,83.936 161.283,84.037 Q161.505,84.778 162.538,84.469 Q163.021,84.324 163.905,83.153 Q163.556,82.683 163.412,82.2 Q163.2,81.493 163.271,80.67 Q163.343,79.848 163.629,78.722 z" fill="#F30404"/>
      <path d="M166.958,81.908 L166.739,81.179 Q167.13,80.279 167.293,79.679 Q166.897,79.664 166.68,79.533 Q166.463,79.402 166.356,79.043 Q166.235,78.639 166.386,77.92 Q166.538,77.202 166.871,76.515 Q167.203,75.828 167.56,75.55 Q167.694,75.424 167.84,75.381 Q168.064,75.313 168.128,75.527 Q168.185,75.717 168.012,76.405 Q170.217,75.353 170.823,75.171 Q171.059,75.101 171.162,75.119 Q171.383,75.163 171.618,75.496 Q171.852,75.83 171.963,76.2 Q172.034,76.436 171.909,76.773 Q171.783,77.11 171.436,77.789 Q171.033,78.607 170.854,79.481 Q170.676,80.354 170.79,80.735 Q170.948,81.263 171.599,81.068 Q172.284,80.863 173.562,78.963 L173.787,79.715 Q173.148,80.971 172.71,81.714 Q172.272,82.457 171.855,82.943 Q171.438,83.428 171.034,83.55 Q170.562,83.691 170.119,83.353 Q169.675,83.015 169.429,82.195 Q169.285,81.713 169.346,81.021 Q169.408,80.33 169.669,79.463 Q169.929,78.596 170.308,77.699 Q170.014,77.861 169.643,78.051 Q169.272,78.242 168.858,78.452 Q168.444,78.662 168.221,78.777 Q167.942,80.378 166.958,81.908 z" fill="#F30404"/>
      <path d="M181.988,76.462 L182.213,77.214 Q181.397,79.062 180.771,80.075 Q180.144,81.088 179.572,81.26 Q179.022,81.425 178.481,81.232 Q177.94,81.039 177.415,80.573 Q176.89,80.106 176.101,79.23 Q175.74,80.108 175.463,80.858 Q175.186,81.608 175.067,81.864 Q174.948,82.12 174.802,82.163 Q174.499,82.254 174.249,81.907 Q173.998,81.56 173.776,80.819 Q173.473,79.809 173.433,78.799 Q173.394,77.79 173.583,76.767 Q173.772,75.744 174.177,74.503 Q174.582,73.262 175.132,71.874 Q175.891,69.958 176.484,68.71 Q177.076,67.462 177.583,66.766 Q178.09,66.069 178.528,65.938 Q179.067,65.777 179.212,66.259 Q179.336,66.675 178.121,69.846 Q176.906,73.018 174.436,78.615 L174.726,79.58 Q176.456,76.089 177.614,74.298 Q178.772,72.508 179.625,72.252 Q179.973,72.148 180.287,72.501 Q180.6,72.853 180.762,73.392 Q181.091,74.492 180.429,75.712 Q179.767,76.932 178.177,78.73 Q178.666,79.134 178.993,79.286 Q179.32,79.439 179.713,79.322 Q180.061,79.217 180.394,78.86 Q180.728,78.504 181.041,78.018 Q181.354,77.533 181.988,76.462 z M177.725,78.363 Q178.068,77.955 178.525,77.176 Q178.983,76.396 179.242,75.627 Q179.501,74.859 179.373,74.432 Q179.319,74.252 179.162,74.299 Q178.735,74.427 177.943,75.558 Q177.15,76.689 176.546,78.264 Q176.972,78.137 177.725,78.363 z" fill="#F30404"/>
      <path d="M181.97,76.81 L181.889,76.541 Q183.87,72.619 184.592,71.07 Q184.425,69.615 185.368,69.332 Q185.604,69.262 185.914,69.316 L186.045,69.509 Q186.041,69.657 186.115,69.904 Q186.179,70.117 186.515,70.646 Q186.851,71.176 187.058,71.542 Q187.266,71.908 187.414,72.402 Q187.636,73.142 187.503,73.923 Q187.369,74.703 186.916,75.517 Q186.463,76.332 185.648,77.286 Q186.072,77.232 186.308,77.162 Q186.768,77.024 187.232,76.634 Q187.697,76.244 188.136,75.69 Q188.576,75.136 189.132,74.297 L189.357,75.049 Q188.341,76.883 187.424,77.946 Q186.507,79.01 185.688,79.256 Q184.632,79.572 183.465,78.943 Q182.776,78.562 182.499,78.107 Q182.222,77.652 181.97,76.81 z M185.642,73.838 L184.949,72.259 Q184.488,73.254 182.879,76.171 Q183.596,76.115 183.917,76.288 Q184.238,76.461 184.899,77.033 Q185.568,76.49 185.815,75.823 Q186.062,75.156 185.779,74.213 Q185.745,74.1 185.713,74.012 Q185.68,73.924 185.642,73.838 z" fill="#F30404"/>
      <path d="M193.665,61.133 Q193.88,60.995 194.06,60.941 Q194.43,60.83 194.944,60.933 Q195.458,61.036 195.889,61.371 Q195.594,62.304 194.938,64.421 Q194.281,66.539 193.96,67.589 Q193.639,68.64 193.304,69.768 Q192.969,70.896 192.81,71.506 Q193.036,71.487 193.1,71.701 Q193.141,71.835 192.974,72.24 Q192.808,72.644 192.595,72.708 Q192.348,72.782 191.832,72.448 Q191.315,72.113 191.218,71.788 Q191.171,71.63 191.23,71.197 Q191.29,70.763 191.497,69.863 Q191.705,68.962 191.97,67.868 Q192.235,66.773 192.614,65.179 Q193.361,62.08 193.665,61.133 z M192.405,77.096 Q192.068,77.197 191.654,76.997 Q191.239,76.797 191.077,76.258 Q190.865,75.551 190.965,74.555 Q191.064,73.559 191.457,73.441 Q191.703,73.367 192.008,73.465 Q192.313,73.564 192.587,73.824 Q192.861,74.085 192.975,74.466 Q193.16,75.084 192.99,76.028 Q192.82,76.972 192.405,77.096 z" fill="#F30404"/>
    </g>
  </g>
</svg>
