<?xml version="1.0" encoding="UTF-8"?>
<!DOCTYPE svg PUBLIC "-//W3C//DTD SVG 1.1//EN" "http://www.w3.org/Graphics/SVG/1.1/DTD/svg11.dtd">
<svg version="1.1" xmlns="http://www.w3.org/2000/svg" xmlns:xlink="http://www.w3.org/1999/xlink" x="0" y="0" width="256.8" height="122.4" viewBox="0, 0, 256.8, 122.4">
  <g id="Background">
    <rect x="0" y="0" width="256.8" height="122.4" fill="#000000" fill-opacity="0"/>
  </g>
  <g id="blue">
    <path d="M183.978,106.376 C146.411,106.376 115.957,86.15 115.957,61.2 C115.957,36.25 146.411,16.024 183.978,16.024 C221.545,16.024 252,36.25 252,61.2 C252,86.15 221.545,106.376 183.978,106.376 z" fill="#99CCFC"/>
  </g>
  <g id="white" display="none">
    <path d="M183.978,106.376 C146.411,106.376 115.957,86.15 115.957,61.2 C115.957,36.25 146.411,16.024 183.978,16.024 C221.545,16.024 252,36.25 252,61.2 C252,86.15 221.545,106.376 183.978,106.376 z" fill="#FFFFFF"/>
  </g>
  <g id="Layer_3">
    <g>
      <path d="M158.065,114.882 L157.049,114.526 Q156.811,114.421 156.758,114.246 Q156.707,114.071 157.028,112.843 Q157.265,111.965 157.651,110.44 Q158.039,108.914 158.26,107.939 Q158.48,106.962 158.755,105.404 Q159.03,103.847 159.209,102.384 Q159.623,99.016 159.377,98.194 Q159.086,97.224 158.332,97.45 Q157.765,97.619 156.893,98.504 Q156.02,99.39 155.182,100.655 Q154.342,101.918 153.904,103.151 Q153.466,104.383 153.696,105.151 Q153.732,105.272 153.817,105.313 Q153.904,105.354 154.079,105.301 Q154.402,105.204 155.016,104.609 Q155.291,104.351 155.356,104.566 Q155.42,104.782 154.664,105.984 Q153.91,107.186 153.425,107.332 Q153.007,107.458 152.044,106.961 Q151.08,106.464 150.902,105.871 Q150.834,105.642 150.992,104.654 Q151.152,103.668 151.554,102.365 Q151.957,101.063 152.527,100.026 Q153.178,98.818 154.152,97.733 Q155.126,96.648 156.103,95.916 Q157.08,95.183 157.753,94.98 Q158.723,94.69 159.488,95.261 Q160.254,95.831 160.65,97.151 Q161.174,98.903 160.794,102.628 Q160.412,106.354 158.89,111.655 Q158.97,111.778 159.07,111.916 Q159.17,112.055 159.211,112.189 Q159.218,112.217 159.2,112.303 Q159.182,112.388 159.152,112.486 Q159.124,112.583 159.118,112.614 L158.618,114.524 Q158.542,114.857 158.366,114.908 Q158.206,114.958 158.065,114.882 z" fill="#F30404"/>
      <path d="M166.004,99.833 L166.584,99.66 Q166.914,98.166 167.334,97.46 Q167.754,96.755 168.494,96.533 Q169.235,96.311 169.337,96.647 Q169.385,96.809 169.02,97.697 Q168.654,98.584 168.503,99.157 Q168.977,99.074 169.346,99.008 Q169.716,98.941 169.926,98.908 Q169.585,100.566 168.875,102.408 Q168.49,102.494 168.228,102.551 Q167.966,102.607 167.698,102.666 Q167.429,102.724 167.044,102.81 Q166.667,104.201 166.452,105.27 Q166.237,106.34 166.205,107.186 Q166.171,108.034 166.378,108.72 Q166.656,109.65 167.398,109.428 Q167.909,109.274 168.574,108.481 Q169.238,107.687 170.287,106.14 L170.557,107.042 Q168.103,112.079 166.366,112.6 Q165.76,112.781 165.247,112.421 Q164.736,112.061 164.514,111.319 Q164.365,110.821 164.368,110.071 Q164.37,109.322 164.494,107.773 Q164.353,107.992 164.232,108.197 Q164.11,108.402 164.006,108.572 Q163.903,108.743 163.784,108.932 Q163.664,109.122 163.548,109.319 L163.268,108.39 Q164.328,106.781 165.443,103.201 Q165.236,103.249 165.06,103.295 Q164.882,103.34 164.64,103.414 Q163.846,103.651 163.487,103.876 Q163.338,103.964 163.211,104.054 Q163.082,104.144 163.03,104.16 Q162.976,104.177 162.95,104.095 Q162.817,103.651 163.104,102.596 Q163.322,101.708 163.61,101.226 Q163.898,100.744 164.432,100.444 Q164.968,100.144 166.004,99.833 z" fill="#F30404"/>
      <path d="M185.536,103.332 Q185.717,103.938 186.175,103.8 Q186.768,103.622 187.648,101.172 Q187.481,100.811 187.445,100.69 Q187.226,99.962 187.492,98.737 Q187.756,97.513 188.275,96.506 Q188.796,95.498 189.186,95.382 Q189.658,95.24 189.997,96.372 Q190.276,97.301 190.148,98.323 Q190.022,99.344 189.55,100.513 Q189.708,100.598 189.894,100.682 Q190.081,100.765 190.276,100.802 Q190.47,100.84 190.658,100.783 Q191.104,100.65 191.576,99.73 L191.863,100.686 Q191.13,102.11 190.349,102.344 Q189.89,102.481 189.593,102.445 Q189.296,102.41 188.803,102.235 Q187.217,105.954 185.923,106.342 Q185.425,106.492 185.024,106.207 Q184.624,105.924 184.427,105.264 Q184.33,104.941 183.97,102.758 Q183.625,103.523 183.172,104.554 Q182.717,105.586 182.417,106.152 Q182.117,106.72 181.819,107.072 Q181.522,107.426 181.145,107.539 Q180.781,107.648 180.138,107.341 Q179.496,107.035 178.918,106.379 Q178.339,105.722 178.076,104.848 Q177.823,103.999 177.883,103.32 Q177.944,102.641 178.444,101.171 Q178.901,99.858 179.302,98.99 Q179.702,98.122 180.08,97.597 Q180.46,97.072 180.769,96.979 Q180.958,96.923 181.286,96.919 Q181.616,96.917 181.896,96.994 Q182.177,97.072 182.225,97.232 Q182.378,97.745 182.161,98.662 Q181.944,99.578 181.345,100.814 Q180.748,102.05 179.905,103.404 Q179.874,104.426 180.048,105.006 Q180.104,105.194 180.269,105.328 Q180.434,105.462 180.595,105.414 Q181.148,105.248 182.201,103.054 Q183.253,100.859 184.776,96.586 Q184.83,96.422 185.14,96.33 Q185.477,96.229 185.797,96.294 Q186.118,96.36 186.194,96.616 Q186.239,96.764 185.959,98.404 Q185.681,100.044 185.519,101.392 Q185.358,102.739 185.536,103.332 z" fill="#F30404"/>
      <path d="M200.192,97.177 L200.462,98.08 Q199.816,99.155 199.357,99.586 Q198.899,100.016 197.873,100.265 Q196.744,102.865 195.41,103.265 Q194.656,103.49 193.886,103.177 Q193.117,102.865 192.488,102.114 Q191.86,101.363 191.54,100.298 Q191.282,99.437 191.54,98.214 Q191.798,96.992 192.434,95.81 Q193.072,94.628 193.942,93.758 Q194.81,92.888 195.7,92.622 Q196.333,92.432 196.756,92.519 Q197.178,92.605 197.282,92.956 Q197.363,93.224 197.159,93.668 Q197.702,93.623 197.965,93.815 Q198.229,94.008 198.427,94.668 Q198.62,95.315 198.612,96.389 Q198.604,97.463 198.337,98.482 L198.652,98.652 L198.854,98.592 Q199.082,98.522 199.271,98.341 Q199.459,98.16 199.596,97.98 Q199.733,97.8 200.192,97.177 z M196.355,94.466 Q195.439,95.474 194.808,96.259 Q194.177,97.043 193.792,97.766 Q193.406,98.491 193.388,99.114 Q193.504,100.723 193.54,100.844 Q193.806,101.734 195.046,101.363 Q195.625,101.189 196.686,99.784 Q196.267,99.22 196.094,98.64 Q195.84,97.792 195.925,96.804 Q196.012,95.818 196.355,94.466 z" fill="#F30404"/>
      <path d="M200.35,98.29 L200.087,97.415 Q200.556,96.335 200.752,95.615 Q200.276,95.597 200.016,95.44 Q199.756,95.282 199.627,94.852 Q199.482,94.367 199.663,93.504 Q199.846,92.642 200.245,91.818 Q200.644,90.994 201.072,90.66 Q201.233,90.509 201.408,90.457 Q201.677,90.376 201.754,90.632 Q201.822,90.86 201.614,91.686 Q204.26,90.424 204.988,90.205 Q205.271,90.121 205.394,90.143 Q205.66,90.196 205.942,90.595 Q206.222,90.996 206.356,91.44 Q206.441,91.723 206.291,92.128 Q206.14,92.532 205.723,93.347 Q205.24,94.328 205.025,95.377 Q204.811,96.425 204.948,96.882 Q205.138,97.516 205.919,97.282 Q206.741,97.036 208.274,94.756 L208.544,95.658 Q207.778,97.165 207.252,98.057 Q206.726,98.948 206.226,99.532 Q205.726,100.114 205.241,100.26 Q204.674,100.429 204.143,100.024 Q203.61,99.618 203.315,98.634 Q203.142,98.056 203.215,97.225 Q203.29,96.396 203.603,95.356 Q203.915,94.315 204.37,93.239 Q204.017,93.433 203.572,93.661 Q203.126,93.89 202.63,94.142 Q202.133,94.394 201.865,94.532 Q201.53,96.454 200.35,98.29 z" fill="#F30404"/>
      <path d="M218.386,91.754 L218.656,92.657 Q217.676,94.874 216.925,96.09 Q216.173,97.306 215.486,97.512 Q214.826,97.71 214.177,97.478 Q213.528,97.247 212.898,96.688 Q212.268,96.127 211.321,95.076 Q210.888,96.13 210.556,97.03 Q210.223,97.93 210.08,98.237 Q209.938,98.544 209.762,98.596 Q209.399,98.705 209.099,98.288 Q208.798,97.872 208.531,96.983 Q208.168,95.771 208.12,94.559 Q208.073,93.348 208.3,92.12 Q208.526,90.893 209.012,89.404 Q209.498,87.914 210.158,86.249 Q211.069,83.95 211.781,82.452 Q212.491,80.954 213.1,80.119 Q213.708,79.283 214.234,79.126 Q214.88,78.932 215.054,79.511 Q215.203,80.01 213.745,83.815 Q212.287,87.622 209.323,94.338 L209.671,95.496 Q211.747,91.307 213.137,89.158 Q214.526,87.01 215.55,86.702 Q215.968,86.578 216.344,87.001 Q216.72,87.424 216.914,88.07 Q217.309,89.39 216.515,90.854 Q215.72,92.318 213.812,94.476 Q214.399,94.961 214.792,95.143 Q215.184,95.327 215.656,95.186 Q216.073,95.06 216.473,94.632 Q216.874,94.205 217.249,93.622 Q217.625,93.04 218.386,91.754 z M213.27,94.036 Q213.682,93.546 214.23,92.611 Q214.78,91.675 215.09,90.752 Q215.401,89.831 215.248,89.318 Q215.183,89.102 214.994,89.159 Q214.482,89.312 213.532,90.67 Q212.58,92.027 211.855,93.917 Q212.366,93.764 213.27,94.036 z" fill="#F30404"/>
      <path d="M218.364,92.172 L218.267,91.849 Q220.644,87.143 221.51,85.284 Q221.31,83.538 222.442,83.198 Q222.725,83.114 223.097,83.179 L223.254,83.411 Q223.249,83.588 223.338,83.885 Q223.415,84.14 223.818,84.775 Q224.221,85.411 224.47,85.85 Q224.719,86.29 224.897,86.882 Q225.163,87.77 225.004,88.708 Q224.843,89.644 224.299,90.62 Q223.756,91.598 222.778,92.743 Q223.286,92.678 223.57,92.594 Q224.122,92.429 224.678,91.961 Q225.236,91.493 225.763,90.828 Q226.291,90.163 226.958,89.156 L227.228,90.059 Q226.009,92.26 224.909,93.535 Q223.808,94.812 222.826,95.107 Q221.558,95.486 220.158,94.732 Q219.331,94.274 218.999,93.728 Q218.666,93.182 218.364,92.172 z M222.77,88.606 L221.939,86.711 Q221.386,87.905 219.455,91.405 Q220.315,91.338 220.7,91.546 Q221.086,91.753 221.879,92.44 Q222.682,91.788 222.978,90.988 Q223.274,90.187 222.935,89.056 Q222.894,88.92 222.856,88.814 Q222.816,88.709 222.77,88.606 z" fill="#F30404"/>
      <path d="M232.398,73.36 Q232.656,73.194 232.872,73.129 Q233.316,72.996 233.933,73.12 Q234.55,73.243 235.067,73.645 Q234.713,74.765 233.926,77.305 Q233.137,79.847 232.752,81.107 Q232.367,82.368 231.965,83.722 Q231.563,85.075 231.372,85.807 Q231.643,85.784 231.72,86.041 Q231.769,86.202 231.569,86.688 Q231.37,87.173 231.114,87.25 Q230.818,87.338 230.198,86.938 Q229.578,86.536 229.462,86.146 Q229.405,85.956 229.476,85.436 Q229.548,84.916 229.796,83.836 Q230.046,82.754 230.364,81.442 Q230.682,80.128 231.137,78.215 Q232.033,74.496 232.398,73.36 z M230.886,92.515 Q230.482,92.636 229.985,92.396 Q229.487,92.156 229.292,91.51 Q229.038,90.661 229.158,89.466 Q229.277,88.271 229.748,88.129 Q230.044,88.04 230.41,88.158 Q230.776,88.277 231.104,88.589 Q231.433,88.902 231.57,89.359 Q231.792,90.101 231.588,91.234 Q231.384,92.366 230.886,92.515 z" fill="#F30404"/>
    </g>
    <path d="M149.274,69.2 L149.274,63.32 L142.89,63.32 L142.89,69.2 z" fill="#15171A"/>
    <g>
      <path d="M19.578,61.78 L19.578,69.2 L38.982,69.2 Q41.054,69.2 42.468,69.004 Q43.882,68.808 44.988,68.192 Q46.094,67.576 46.696,66.33 Q47.298,65.084 47.298,63.012 Q47.298,61.36 46.794,60.324 Q46.29,59.288 45.562,58.798 Q44.834,58.308 44.134,58.154 Q43.434,58 42.846,58 L42.846,57.916 Q43.154,57.916 43.714,57.762 Q44.274,57.608 44.918,57.09 Q45.562,56.572 46.038,55.522 Q46.514,54.472 46.514,52.792 Q46.514,50.888 45.828,49.726 Q45.142,48.564 44.05,48.018 Q42.958,47.472 41.754,47.332 Q40.55,47.192 38.982,47.192 L19.578,47.192 z M26.242,60.324 L38.702,60.324 Q39.514,60.324 40.018,60.828 Q40.522,61.332 40.522,62.144 Q40.522,63.152 40.018,63.614 Q39.514,64.076 38.702,64.076 L26.242,64.076 z M26.13,52.12 L38.114,52.12 Q38.842,52.12 39.346,52.638 Q39.85,53.156 39.85,53.94 Q39.85,54.836 39.318,55.354 Q38.786,55.872 38.03,55.872 L26.13,55.872 z" fill="#15171A"/>
      <path d="M70.846,65.448 L72.862,69.2 L80.478,69.2 L68.522,47.192 L59.73,47.192 L47.662,69.2 L55.278,69.2 L57.322,65.448 z M64.07,52.792 L68.326,60.716 L59.814,60.716 z" fill="#15171A"/>
      <path d="M91.958,63.992 L92.154,63.992 L108.058,52.428 L108.058,47.192 L81.99,47.192 L81.99,52.428 L98.09,52.428 L97.782,52.428 L81.99,63.992 L81.99,69.2 L108.058,69.2 L108.058,63.992 z" fill="#15171A"/>
      <path d="M110.27,47.192 L110.27,69.2 L117.13,69.2 L117.13,47.192 z" fill="#15171A"/>
      <path d="M126.258,63.88 L126.258,47.192 L119.398,47.192 L119.398,69.2 L119.79,69.2 L126.734,69.2 L141.126,69.2 L141.126,63.88 z" fill="#15171A"/>
      <path d="M170.274,62.172 Q174.082,62.172 175.664,60.198 Q177.246,58.224 177.246,54.052 Q177.246,52.036 176.77,50.72 Q176.294,49.404 175.3,48.634 Q174.306,47.864 172.766,47.528 Q171.226,47.192 168.93,47.192 L151.262,47.192 L151.262,69.2 L158.122,69.2 L158.122,52.708 L168.342,52.708 Q169.322,52.708 170.106,53.352 Q170.89,53.996 170.946,54.92 Q170.946,56.068 170.134,56.698 Q169.322,57.328 168.258,57.328 L159.074,57.328 L164.478,62.172 z" fill="#15171A"/>
      <path d="M196.902,57.216 L187.046,57.216 L200.29,69.2 L207.906,69.2 L198.918,61.388 L198.918,61.276 Q200.878,61.276 202.18,60.884 Q203.482,60.492 204.266,59.652 Q205.05,58.812 205.414,57.44 Q205.778,56.068 205.778,54.052 Q205.778,52.036 205.316,50.72 Q204.854,49.404 203.874,48.634 Q202.894,47.864 201.354,47.528 Q199.814,47.192 197.49,47.192 L179.234,47.192 L179.234,69.2 L186.094,69.2 L186.094,52.68 L196.986,52.68 Q197.994,52.68 198.75,53.31 Q199.506,53.94 199.506,54.92 Q199.506,56.04 198.722,56.628 Q197.938,57.216 196.902,57.216 z" fill="#15171A"/>
      <path d="M208.354,63.516 Q208.354,64.86 208.662,65.784 Q208.97,66.708 209.81,67.464 Q210.566,68.164 211.434,68.542 Q212.302,68.92 213.674,69.102 Q215.046,69.284 217.006,69.34 Q218.966,69.396 222.746,69.396 Q226.526,69.396 228.514,69.34 Q230.502,69.284 231.86,69.102 Q233.218,68.92 234.128,68.542 Q235.038,68.164 235.766,67.464 Q236.606,66.708 236.914,65.784 Q237.222,64.86 237.222,63.516 Q237.222,60.324 237.222,55.984 L237.222,52.792 Q237.222,51.448 236.914,50.566 Q236.606,49.684 235.766,48.928 Q235.038,48.2 234.156,47.808 Q233.274,47.416 231.944,47.248 Q230.614,47.08 228.71,47.038 Q226.806,46.996 222.83,46.996 Q218.854,46.996 216.95,47.038 Q215.046,47.08 213.688,47.248 Q212.33,47.416 211.434,47.808 Q210.538,48.2 209.81,48.928 Q208.97,49.684 208.662,50.566 Q208.354,51.448 208.354,52.792 z M214.542,53.744 Q214.542,53.128 215.004,52.764 Q215.466,52.4 216.558,52.4 Q227.562,52.4 229.102,52.4 Q230.278,52.4 230.712,52.68 Q231.146,52.96 231.146,53.744 L231.146,60.128 L231.146,62.648 Q231.146,63.18 230.628,63.53 Q230.11,63.88 229.018,63.88 Q218.098,63.88 216.558,63.88 Q215.382,63.88 214.962,63.614 Q214.542,63.348 214.542,62.648 z" fill="#15171A"/>
    </g>
  </g>
</svg>
