<?xml version="1.0" encoding="UTF-8" standalone="no"?>
<svg
   xmlns:dc="http://purl.org/dc/elements/1.1/"
   xmlns:cc="http://creativecommons.org/ns#"
   xmlns:rdf="http://www.w3.org/1999/02/22-rdf-syntax-ns#"
   xmlns:svg="http://www.w3.org/2000/svg"
   xmlns="http://www.w3.org/2000/svg"
   xmlns:sodipodi="http://sodipodi.sourceforge.net/DTD/sodipodi-0.dtd"
   xmlns:inkscape="http://www.inkscape.org/namespaces/inkscape"
   version="1.1"
   x="0"
   y="0"
   width="294.192"
   height="114.192"
   viewBox="0, 0, 294.192, 114.192"
   id="svg9"
   sodipodi:docname="ru-over.svg"
   inkscape:version="0.92.2 (5c3e80d, 2017-08-06)">
  <metadata
     id="metadata15">
    <rdf:RDF>
      <cc:Work
         rdf:about="">
        <dc:format>image/svg+xml</dc:format>
        <dc:type
           rdf:resource="http://purl.org/dc/dcmitype/StillImage" />
        <dc:title></dc:title>
      </cc:Work>
    </rdf:RDF>
  </metadata>
  <defs
     id="defs13" />
  <sodipodi:namedview
     pagecolor="#ffffff"
     bordercolor="#666666"
     borderopacity="1"
     objecttolerance="10"
     gridtolerance="10"
     guidetolerance="10"
     inkscape:pageopacity="0"
     inkscape:pageshadow="2"
     inkscape:window-width="640"
     inkscape:window-height="480"
     id="namedview11"
     showgrid="false"
     inkscape:zoom="1.2712787"
     inkscape:cx="147.09599"
     inkscape:cy="57.096001"
     inkscape:window-x="0"
     inkscape:window-y="27"
     inkscape:window-maximized="0"
     inkscape:current-layer="svg9" />
  <g
     id="Layer_1"
     transform="translate(-52.904, -130.316)"
     style="fill:#ff0000">
    <g
       id="g6"
       style="fill:#ff0000">
      <path
         d="M143.768,181.868 L93.08,181.868 L161.192,243.5 L200.36,243.5 L154.136,203.324 L154.136,202.748 Q164.216,202.748 170.912,200.732 Q177.608,198.716 181.64,194.396 Q185.672,190.076 187.544,183.02 Q189.416,175.964 189.416,165.596 Q189.416,155.228 187.04,148.46 Q184.664,141.692 179.624,137.732 Q174.584,133.772 166.664,132.044 Q158.744,130.316 146.792,130.316 L52.904,130.316 L52.904,243.5 L88.184,243.5 L88.184,158.54 L144.2,158.54 Q149.384,158.54 153.272,161.78 Q157.16,165.02 157.16,170.06 Q157.16,175.82 153.128,178.844 Q149.096,181.868 143.768,181.868 z"
         fill="#808080"
         id="path2"
         style="fill:#ff0000" />
      <path
         d="M204.104,130.316 L204.104,210.668 Q204.104,218.3 205.76,223.628 Q207.416,228.956 212.024,233.564 Q216.776,237.884 220.16,239.9 Q223.544,241.916 229.232,242.924 Q234.92,243.932 245,244.22 Q255.08,244.508 275.672,244.508 Q296.408,244.508 306.416,244.22 Q316.424,243.932 322.112,242.924 Q327.8,241.916 331.04,239.972 Q334.28,238.028 339.176,233.564 Q343.784,228.956 345.44,223.628 Q347.096,218.3 347.096,210.668 L347.096,130.316 L312.392,130.316 L312.392,205.772 Q312.392,209.084 309.584,211.172 Q306.776,213.26 300.44,213.26 L250.328,213.26 Q244.424,213.26 241.616,211.172 Q238.808,209.084 238.808,205.772 L238.808,130.316 z"
         fill="#808080"
         id="path4"
         style="fill:#ff0000" />
    </g>
  </g>
</svg>
