<?xml version="1.0" encoding="UTF-8"?>
<!DOCTYPE svg PUBLIC "-//W3C//DTD SVG 1.1//EN" "http://www.w3.org/Graphics/SVG/1.1/DTD/svg11.dtd">
<svg version="1.1" xmlns="http://www.w3.org/2000/svg" xmlns:xlink="http://www.w3.org/1999/xlink" x="0" y="0" width="315.226" height="256.14" viewBox="0, 0, 315.226, 256.14">
  <g id="Layer_1">
    <path d="M99.132,256.14 C218.086,256.14 283.149,157.588 283.149,72.123 C283.149,69.324 283.149,66.538 282.959,63.764 C295.616,54.608 306.543,43.273 315.226,30.287 C303.423,35.517 290.901,38.947 278.08,40.462 C291.58,32.38 301.685,19.667 306.513,4.69 C293.818,12.224 279.928,17.533 265.446,20.389 C245.398,-0.928 213.543,-6.146 187.742,7.662 C161.943,21.469 148.614,50.868 155.23,79.374 C103.229,76.766 54.78,52.205 21.94,11.802 C4.774,41.352 13.542,79.158 41.963,98.136 C31.67,97.831 21.603,95.054 12.609,90.041 C12.609,90.306 12.609,90.583 12.609,90.861 C12.618,121.647 34.319,148.162 64.495,154.259 C54.974,156.855 44.984,157.235 35.293,155.368 C43.765,181.714 68.046,199.762 95.715,200.282 C72.813,218.28 44.524,228.051 15.396,228.022 C10.25,228.012 5.109,227.7 0,227.089 C29.576,246.069 63.99,256.136 99.132,256.089" fill="#1AA1F3" id="path2"/>
  </g>
</svg>
