<?xml version="1.0" encoding="UTF-8"?>
<!DOCTYPE svg PUBLIC "-//W3C//DTD SVG 1.1//EN" "http://www.w3.org/Graphics/SVG/1.1/DTD/svg11.dtd">
<svg version="1.1" xmlns="http://www.w3.org/2000/svg" xmlns:xlink="http://www.w3.org/1999/xlink" x="0" y="0" width="400" height="400" viewBox="0, 0, 400, 400">
  <defs>
    <filter id="Shadow_1">
      <feGaussianBlur in="SourceAlpha" stdDeviation="2.5"/>
      <feOffset dx="0" dy="2" result="offsetblur"/>
      <feFlood flood-color="#000000"/>
      <feComposite in2="offsetblur" operator="in"/>
    </filter>
  </defs>
  <g id="Layer_1">
    <g>
      <path d="M246.966,98.015 C261.792,97.959 275.11,103.844 285.683,114.072 C297.09,111.944 307.781,107.42 317.835,101.74 L318.971,101.066 L318.566,102.323 C315.038,113.829 307.323,122.768 297.763,129.73 C307.13,128.567 316.133,125.659 324.797,122.013 L326.374,121.314 L325.416,122.748 C318.633,133.129 309.762,141.803 299.924,149.258 C300.067,151.385 300.057,153.519 300.06,155.65 C300.06,190.675 286.456,227.012 262.342,254.368 C235.591,284.717 198.087,302.09 153.62,302.09 L153.62,302.05 C125.521,302.247 98.508,293.634 74.73,278.971 L75.059,278.053 C79.092,278.536 83.15,278.782 87.211,278.79 C109.754,278.806 131.553,271.231 149.521,257.709 C127.166,256.673 110.046,242.413 102.514,221.823 L102.256,221.019 L103.085,221.179 C109.969,222.436 117.125,222.462 123.952,220.808 C100.715,214.781 85.031,194.379 84.5,170.51 L84.5,169.009 L85.243,169.423 C91.796,173.036 99.075,175.23 106.553,175.676 C84.372,159.971 79.151,130.91 91.968,107.559 L92.331,106.933 L92.788,107.495 C118.52,139.254 156.867,158.283 197.5,160.86 C192.573,137.911 203.596,115.37 223.66,104.086 C230.958,100.051 236.025,99.405 244.013,98.112 L246.966,98.015 z M250.238,99.026 C245.46,99.09 247.506,99.063 244.092,99.109 C236.991,99.54 230.457,101.915 224.131,104.968 C203.869,115.812 193.401,138.9 198.597,161.287 L198.747,161.932 L198.085,161.899 C157.027,159.896 118.737,140.131 92.486,108.693 C79.311,132.266 86.792,160.554 108.558,175.864 L110.006,176.831 L108.265,176.78 C100.274,176.583 92.57,174.35 85.504,170.684 C85.569,194.903 102.964,215.061 126.249,220.3 L126.282,221.272 C118.925,223.315 111.261,223.525 103.753,222.301 C111.053,243.259 129.142,255.518 150.919,256.79 L152.322,256.816 L151.219,257.683 C132.968,272.027 110.422,279.813 87.209,279.79 C79.727,279.556 83.105,279.782 77.068,279.238 C99.971,293.811 126.659,300.601 153.619,301.05 L153.62,301.588 L153.62,301.09 C197.797,301.09 235.028,283.843 261.592,253.707 C285.544,226.534 299.06,190.432 299.06,155.65 C299.06,152.336 299.035,150.873 298.911,149.054 L298.892,148.777 L299.117,148.615 C308.667,141.755 316.854,133.215 323.594,123.604 C314.697,127.537 305.196,129.719 295.599,131.036 L295.283,130.111 C305.416,123.971 313.284,114.472 317.183,103.256 C307.438,109.085 296.651,112.689 285.617,115.11 L285.345,115.164 L285.156,114.963 C276.543,105.883 264.81,100.15 252.282,99.122 L250.238,99.026 z M153.62,301.55 L153.62,301.55" filter="url(#Shadow_1)" fill="rgba(0,0,0,0.647)"/>
      <path d="M153.62,301.59 C247.96,301.59 299.56,223.43 299.56,155.65 C299.56,153.43 299.56,151.22 299.41,149.02 C309.448,141.759 318.114,132.769 325,122.47 C315.639,126.618 305.708,129.338 295.54,130.54 C306.247,124.13 314.261,114.048 318.09,102.17 C308.022,108.145 297.006,112.355 285.52,114.62 C269.621,97.714 244.357,93.576 223.895,104.527 C203.434,115.477 192.863,138.793 198.11,161.4 C156.869,159.332 118.445,139.853 92.4,107.81 C78.786,131.246 85.74,161.229 108.28,176.28 C100.117,176.038 92.133,173.836 85,169.86 C85,170.07 85,170.29 85,170.51 C85.007,194.926 102.218,215.955 126.15,220.79 C118.599,222.849 110.676,223.15 102.99,221.67 C109.709,242.564 128.966,256.878 150.91,257.29 C132.747,271.564 110.311,279.313 87.21,279.29 C83.129,279.282 79.052,279.035 75,278.55 C98.456,293.603 125.749,301.587 153.62,301.55" fill="#808080"/>
      <path d="M153.62,301.59 C247.96,301.59 299.56,223.43 299.56,155.65 C299.56,153.43 299.56,151.22 299.41,149.02 C309.448,141.759 318.114,132.769 325,122.47 C315.639,126.618 305.708,129.338 295.54,130.54 C306.247,124.13 314.261,114.048 318.09,102.17 C308.022,108.145 297.006,112.355 285.52,114.62 C269.621,97.714 244.357,93.576 223.895,104.527 C203.434,115.477 192.863,138.793 198.11,161.4 C156.869,159.332 118.445,139.853 92.4,107.81 C78.786,131.246 85.74,161.229 108.28,176.28 C100.117,176.038 92.133,173.836 85,169.86 C85,170.07 85,170.29 85,170.51 C85.007,194.926 102.218,215.955 126.15,220.79 C118.599,222.849 110.676,223.15 102.99,221.67 C109.709,242.564 128.966,256.878 150.91,257.29 C132.747,271.564 110.311,279.313 87.21,279.29 C83.129,279.282 79.052,279.035 75,278.55 C98.456,293.603 125.749,301.587 153.62,301.55" fill-opacity="0" stroke="#000000" stroke-width="1"/>
    </g>
  </g>
</svg>
