<?xml version="1.0" encoding="UTF-8"?>
<!DOCTYPE svg PUBLIC "-//W3C//DTD SVG 1.1//EN" "http://www.w3.org/Graphics/SVG/1.1/DTD/svg11.dtd">
<svg version="1.1" xmlns="http://www.w3.org/2000/svg" xmlns:xlink="http://www.w3.org/1999/xlink" x="0" y="0" width="478.165" height="478.165" viewBox="0, 0, 478.165, 478.165">
  <g id="Layer_1">
    <path d="M376.893,349.758 L350.733,349.758 L350.853,334.457 C350.853,327.803 356.332,322.085 363.106,322.085 L364.74,322.085 C371.753,322.085 377.352,327.803 377.352,334.457 L376.893,349.758 z M278.491,317.063 C271.837,317.063 266.457,321.625 266.457,327.104 L266.457,401.12 C266.457,406.499 271.836,411.161 278.491,411.161 C285.146,411.161 290.624,406.499 290.624,401.12 L290.624,327.104 C290.624,321.625 285.146,317.063 278.491,317.063 z M438.298,275.622 L438.298,416.521 C438.298,450.371 409.11,478.164 373.148,478.164 L105.117,478.164 C69.155,478.164 39.867,450.371 39.867,416.521 L39.867,275.622 C39.867,241.772 69.175,214.218 105.117,214.218 L373.148,214.218 C409.11,214.218 438.298,241.772 438.298,275.622 z M122.988,431.942 L122.988,283.452 L156.26,283.452 L156.26,261.397 L67.66,261.277 L67.66,282.994 L95.334,282.994 L95.334,431.962 L122.988,431.962 L122.988,431.942 z M222.566,305.627 L194.892,305.627 L194.892,384.783 C194.892,396.458 195.589,402.057 194.892,404.169 C192.561,410.246 182.519,416.781 178.555,404.866 C177.858,402.535 178.435,396.458 178.435,385.48 L178.435,305.627 L150.761,305.627 L150.881,384.305 C150.881,396.219 150.642,405.324 151.001,409.289 C151.579,416.521 151.36,424.929 158.014,429.83 C170.506,438.696 194.434,428.435 200.391,415.585 L200.391,431.922 L222.566,431.922 L222.566,305.627 L222.566,305.627 z M311.166,396.438 L311.166,330.252 C311.166,305.268 292.378,290.086 266.796,310.408 L266.916,261.376 L239.123,261.376 L239.123,431.005 L261.776,430.547 L263.987,420.047 C292.956,446.646 311.166,428.436 311.166,396.438 z M397.913,387.572 L377.133,387.811 C377.133,388.508 377.133,389.445 377.133,390.62 L377.133,402.295 C377.133,408.372 371.993,413.512 365.697,413.512 L361.732,413.512 C355.436,413.512 350.415,408.372 350.415,402.295 L350.415,400.9 L350.415,388.049 L350.415,371.473 L397.933,371.473 L397.933,353.622 C397.933,340.771 397.475,327.462 396.538,320.111 C393.031,296.422 359.879,292.796 343.063,304.81 C337.684,308.556 333.719,313.556 331.388,320.45 C329.057,327.224 327.881,336.568 327.881,348.462 L327.881,387.811 C327.981,453.181 407.237,443.836 397.913,387.572 z M291.322,173.932 C292.836,177.439 295.068,180.228 297.976,182.34 C301.004,184.432 304.87,185.607 309.412,185.607 C313.377,185.607 316.883,184.432 320.031,182.1 C323.059,179.888 325.63,176.621 327.861,172.178 L327.164,183.156 L358.105,183.156 L358.105,51.721 L333.818,51.721 L333.818,153.988 C333.818,159.587 329.256,164.029 323.537,164.029 C318.058,164.029 313.376,159.467 313.376,153.988 L313.376,51.721 L288.153,51.721 L288.153,140.321 C288.153,151.538 288.392,159.109 288.611,162.974 C288.991,166.7 290.047,170.446 291.322,173.932 z M197.821,99.697 C197.821,87.085 198.877,77.283 200.969,70.17 C202.961,63.157 206.807,57.439 212.286,53.135 C217.765,48.832 224.659,46.72 233.186,46.72 C240.299,46.72 246.495,48.234 251.635,50.804 C256.656,53.713 260.621,57.219 263.31,61.662 C266.338,66.105 268.211,70.648 269.148,75.33 C270.204,79.992 270.662,87.244 270.662,96.688 L270.662,130.08 C270.662,142.213 270.303,151.219 269.148,156.937 C268.331,162.655 266.339,167.915 263.191,172.816 C260.163,177.717 256.178,181.343 251.277,183.674 C246.495,186.244 240.897,187.3 234.462,187.3 C227.449,187.3 221.611,186.244 216.71,184.272 C211.689,182.18 207.964,179.251 205.274,175.167 C202.584,171.202 200.612,166.181 199.556,160.583 C198.381,154.745 197.803,146.099 197.803,134.543 L197.803,99.697 L197.821,99.697 z M221.988,151.877 C221.988,159.348 227.587,165.305 234.241,165.305 C241.015,165.305 246.494,159.348 246.494,151.877 L246.494,81.945 C246.494,74.593 240.895,68.517 234.241,68.517 C227.467,68.517 221.988,74.594 221.988,81.945 L221.988,151.877 z M136.416,187.241 L165.604,187.241 L165.724,86.488 L200.052,0.219 L168.294,0.219 L149.964,64.193 L131.396,-0 L99.877,-0 L136.417,86.508 C136.416,86.508 136.416,187.241 136.416,187.241 z" fill="#808080" id="YouTube_2_"/>
  </g>
</svg>
