<?xml version="1.0" encoding="UTF-8" standalone="no"?>
<svg
   xmlns:dc="http://purl.org/dc/elements/1.1/"
   xmlns:cc="http://creativecommons.org/ns#"
   xmlns:rdf="http://www.w3.org/1999/02/22-rdf-syntax-ns#"
   xmlns:svg="http://www.w3.org/2000/svg"
   xmlns="http://www.w3.org/2000/svg"
   xmlns:sodipodi="http://sodipodi.sourceforge.net/DTD/sodipodi-0.dtd"
   xmlns:inkscape="http://www.inkscape.org/namespaces/inkscape"
   version="1.1"
   x="0"
   y="0"
   width="269.277"
   height="323.164"
   viewBox="0, 0, 269.277, 323.164"
   id="svg4"
   sodipodi:docname="youtube-over.svg"
   inkscape:version="0.92.2 (5c3e80d, 2017-08-06)">
  <metadata
     id="metadata10">
    <rdf:RDF>
      <cc:Work
         rdf:about="">
        <dc:format>image/svg+xml</dc:format>
        <dc:type
           rdf:resource="http://purl.org/dc/dcmitype/StillImage" />
        <dc:title></dc:title>
      </cc:Work>
    </rdf:RDF>
  </metadata>
  <defs
     id="defs8" />
  <sodipodi:namedview
     pagecolor="#ffffff"
     bordercolor="#666666"
     borderopacity="1"
     objecttolerance="10"
     gridtolerance="10"
     guidetolerance="10"
     inkscape:pageopacity="0"
     inkscape:pageshadow="2"
     inkscape:window-width="640"
     inkscape:window-height="480"
     id="namedview6"
     showgrid="false"
     inkscape:zoom="0.73027936"
     inkscape:cx="134.6385"
     inkscape:cy="161.582"
     inkscape:window-x="308"
     inkscape:window-y="265"
     inkscape:window-maximized="0"
     inkscape:current-layer="svg4" />
  <g
     id="Layer_1"
     transform="translate(-65.362, -38.418)"
     style="fill:#ff0000">
    <path
       d="M293.138,274.8 L275.458,274.8 L275.539,264.459 C275.539,259.962 279.242,256.097 283.82,256.097 L284.925,256.097 C289.664,256.097 293.449,259.962 293.449,264.459 L293.138,274.8 z M226.634,252.703 C222.137,252.703 218.501,255.786 218.501,259.489 L218.501,309.512 C218.501,313.148 222.136,316.298 226.634,316.298 C231.132,316.298 234.834,313.148 234.834,309.512 L234.834,259.489 C234.834,255.786 231.132,252.703 226.634,252.703 z M334.638,224.695 L334.638,319.921 C334.638,342.798 314.912,361.582 290.607,361.582 L109.46,361.582 C85.156,361.582 65.362,342.798 65.362,319.921 L65.362,224.695 C65.362,201.818 85.169,183.196 109.46,183.196 L290.607,183.196 C314.912,183.196 334.638,201.818 334.638,224.695 z M121.538,330.343 L121.538,229.987 L144.025,229.987 L144.025,215.081 L84.145,215 L84.145,229.678 L102.849,229.678 L102.849,330.357 L121.538,330.357 L121.538,330.343 z M188.837,244.974 L170.134,244.974 L170.134,298.471 C170.134,306.362 170.605,310.146 170.134,311.573 C168.559,315.68 161.772,320.097 159.093,312.044 C158.622,310.469 159.012,306.362 159.012,298.942 L159.012,244.974 L140.308,244.974 L140.39,298.148 C140.39,306.2 140.228,312.354 140.471,315.033 C140.861,319.921 140.713,325.603 145.21,328.916 C153.653,334.908 169.825,327.973 173.851,319.288 L173.851,330.33 L188.837,330.33 L188.837,244.974 L188.837,244.974 z M248.717,306.348 L248.717,261.617 C248.717,244.731 236.019,234.471 218.73,248.205 L218.811,215.067 L200.027,215.067 L200.027,329.71 L215.337,329.4 L216.832,322.304 C236.41,340.281 248.717,327.974 248.717,306.348 z M307.345,300.356 L293.301,300.518 C293.301,300.989 293.301,301.622 293.301,302.416 L293.301,310.306 C293.301,314.414 289.827,317.887 285.572,317.887 L282.892,317.887 C278.637,317.887 275.243,314.414 275.243,310.306 L275.243,309.364 L275.243,300.678 L275.243,289.476 L307.358,289.476 L307.358,277.411 C307.358,268.726 307.049,259.731 306.415,254.763 C304.045,238.753 281.64,236.302 270.275,244.422 C266.639,246.954 263.959,250.333 262.384,254.992 C260.809,259.57 260.014,265.885 260.014,273.924 L260.014,300.518 C260.081,344.697 313.646,338.382 307.345,300.356 z M235.306,155.969 C236.329,158.339 237.837,160.224 239.803,161.651 C241.849,163.065 244.462,163.859 247.532,163.859 C250.211,163.859 252.581,163.065 254.709,161.489 C256.755,159.994 258.493,157.786 260,154.783 L259.529,162.203 L280.441,162.203 L280.441,73.373 L264.026,73.373 L264.026,142.49 C264.026,146.274 260.943,149.276 257.078,149.276 C253.375,149.276 250.211,146.193 250.211,142.49 L250.211,73.373 L233.164,73.373 L233.164,133.253 C233.164,140.834 233.326,145.951 233.474,148.563 C233.73,151.081 234.444,153.613 235.306,155.969 z M172.114,105.798 C172.114,97.274 172.827,90.649 174.241,85.842 C175.588,81.102 178.187,77.238 181.89,74.329 C185.593,71.421 190.252,69.993 196.015,69.993 C200.822,69.993 205.01,71.017 208.484,72.754 C211.877,74.72 214.557,77.089 216.374,80.092 C218.42,83.095 219.686,86.165 220.32,89.329 C221.033,92.48 221.343,97.381 221.343,103.764 L221.343,126.332 C221.343,134.532 221.1,140.618 220.32,144.483 C219.767,148.347 218.421,151.902 216.294,155.215 C214.247,158.527 211.554,160.977 208.242,162.553 C205.01,164.29 201.226,165.003 196.877,165.003 C192.138,165.003 188.192,164.29 184.88,162.957 C181.486,161.543 178.969,159.564 177.151,156.803 C175.333,154.124 174,150.73 173.286,146.947 C172.492,143.001 172.102,137.158 172.102,129.348 L172.102,105.798 L172.114,105.798 z M188.447,141.063 C188.447,146.112 192.231,150.138 196.728,150.138 C201.306,150.138 205.009,146.112 205.009,141.063 L205.009,93.8 C205.009,88.831 201.225,84.725 196.728,84.725 C192.15,84.725 188.447,88.832 188.447,93.8 L188.447,141.063 z M130.614,164.964 L150.34,164.964 L150.421,96.87 L173.621,38.566 L152.158,38.566 L139.77,81.802 L127.221,38.418 L105.919,38.418 L130.614,96.884 C130.614,96.884 130.614,164.964 130.614,164.964 z"
       fill="#808080"
       id="YouTube_2_"
       style="fill:#ff0000" />
  </g>
</svg>
